<?xml version="1.0" standalone="no"?>
<!DOCTYPE svg PUBLIC "-//W3C//DTD SVG 20010904//EN"
 "http://www.w3.org/TR/2001/REC-SVG-20010904/DTD/svg10.dtd">
<svg version="1.0" xmlns="http://www.w3.org/2000/svg"
 width="4000.000000pt" height="5333.000000pt" viewBox="0 0 4000.000000 5333.000000"
 preserveAspectRatio="xMidYMid meet">

<g transform="translate(0.000000,5333.000000) scale(0.100000,-0.100000)"
fill="#000000" stroke="none">
<path d="M20550 27385 l0 -336 -42 25 c-64 37 -143 56 -228 56 -121 0 -208
-32 -292 -108 l-38 -34 0 61 0 61 -225 0 -225 0 0 -35 0 -35 -47 31 c-66 41
-133 59 -223 59 -115 0 -208 -32 -285 -99 -16 -14 -27 -22 -22 -17 14 18 -27
46 -102 70 -223 70 -497 57 -623 -29 -20 -14 -39 -25 -42 -25 -4 0 -6 18 -6
40 l0 40 -225 0 -225 0 0 -35 0 -35 -47 31 c-139 87 -352 78 -485 -21 -52 -39
-128 -123 -128 -142 0 -6 -20 16 -44 49 -88 115 -181 165 -322 171 -104 5
-177 -12 -261 -59 l-53 -29 0 35 0 35 -225 0 -225 0 0 -720 0 -720 225 0 225
0 0 266 0 266 23 -16 c174 -128 419 -106 568 51 31 32 61 67 67 78 l12 20 12
-20 c24 -41 108 -121 160 -153 138 -83 335 -77 454 13 18 14 35 25 38 25 3 0
6 -16 6 -36 l0 -35 243 1 c169 1 259 -2 297 -11 79 -19 298 -17 383 4 86 21
173 66 216 111 l34 36 46 -43 c67 -63 129 -95 212 -113 124 -26 239 -4 325 61
18 14 35 25 38 25 3 0 6 -16 6 -35 l0 -35 225 0 225 0 0 55 0 54 63 -47 c79
-61 157 -86 262 -86 93 -1 161 19 235 69 l50 34 0 -40 0 -39 225 0 225 0 0 91
0 91 64 -60 c69 -64 139 -102 238 -129 123 -34 435 -17 521 28 13 7 17 6 17
-6 0 -13 30 -15 230 -15 l229 0 3 295 3 295 32 31 c24 25 42 33 81 37 44 4 53
1 83 -26 l34 -30 3 -301 3 -301 229 0 229 0 3 50 3 51 53 -40 c157 -118 386
-117 520 2 l22 20 0 -41 0 -42 225 0 225 0 -2 488 -3 487 -225 0 -225 0 -3
-27 c-4 -33 -6 -34 -43 -7 -79 56 -231 76 -347 45 -73 -20 -155 -71 -208 -129
l-44 -49 -49 54 c-27 30 -71 66 -98 81 -139 75 -330 76 -460 1 l-42 -24 -3 27
-3 28 -227 3 -228 2 0 -51 0 -51 -22 16 c-53 37 -145 79 -207 92 -79 16 -230
18 -303 3 -88 -18 -187 -72 -250 -135 l-58 -58 0 397 0 397 -230 0 -230 0 0
-335z m386 -212 c-4 -269 -6 -515 -7 -548 0 -33 2 -144 6 -247 l7 -188 -160 0
-161 0 -3 108 -3 107 -33 -56 c-39 -68 -97 -123 -161 -153 -37 -17 -65 -21
-146 -21 -93 0 -105 2 -167 33 -253 124 -307 523 -101 743 104 111 263 146
416 92 78 -28 121 -72 152 -156 15 -39 32 -76 36 -82 5 -5 9 179 9 423 l0 432
161 0 160 0 -5 -487z m-4204 -114 c105 -22 187 -83 235 -176 30 -56 30 -59 16
-98 -25 -67 -28 -204 -8 -300 l17 -84 -27 -47 c-37 -64 -96 -118 -163 -151
-52 -25 -67 -28 -167 -28 -103 0 -113 2 -164 30 -60 33 -90 67 -138 152 l-33
58 0 -342 0 -343 -165 0 -165 0 0 655 0 655 165 0 164 0 3 -97 3 -98 33 57
c37 65 78 103 140 130 81 36 167 45 254 27z m829 -14 c63 -22 124 -76 162
-144 l32 -56 3 98 3 97 164 0 165 0 0 -40 c0 -23 -7 -54 -15 -70 -27 -53 -30
-138 -6 -207 17 -50 21 -87 21 -183 l0 -120 -47 -96 -48 -96 24 -19 c23 -19
23 -19 -113 -19 l-136 0 0 110 c0 61 -3 110 -7 110 -5 0 -24 -31 -44 -68 -59
-113 -159 -172 -289 -172 -186 0 -324 106 -383 295 -68 218 23 469 203 560 29
15 71 30 94 35 55 12 160 5 217 -15z m1178 -5 c50 -12 93 -26 97 -31 4 -7 -54
-126 -81 -166 -1 -2 -26 7 -56 19 -39 15 -77 22 -137 22 -82 1 -84 0 -112 -31
-26 -29 -28 -36 -19 -63 14 -38 45 -55 151 -79 46 -11 104 -29 129 -39 l46
-20 5 -79 c5 -71 20 -127 59 -220 13 -32 12 -34 -25 -72 -71 -73 -200 -111
-376 -111 -58 0 -135 7 -171 14 -75 16 -169 54 -169 67 0 5 20 50 45 99 l45
89 53 -25 c149 -68 317 -43 317 47 0 38 -33 66 -100 85 -156 45 -189 58 -231
89 -59 43 -89 102 -89 178 0 67 12 102 48 140 36 38 124 82 192 96 30 6 64 13
75 15 42 10 218 -4 304 -24z m586 15 c88 -23 147 -67 192 -144 l38 -65 3 97 3
97 164 0 165 0 0 -64 c0 -45 -7 -79 -23 -117 -36 -82 -49 -145 -48 -244 0 -95
18 -180 51 -245 14 -28 20 -59 20 -110 l0 -70 -160 0 -160 0 0 113 c-1 108 -1
111 -18 90 -9 -11 -29 -44 -44 -72 -32 -59 -100 -113 -172 -137 -73 -25 -193
-16 -273 20 -165 75 -262 278 -233 486 37 264 257 426 495 365z m2315 -11 c75
-22 123 -48 170 -91 l40 -35 0 -174 0 -174 -281 0 -281 0 7 -37 c10 -53 50
-102 104 -126 63 -28 200 -27 291 2 36 11 68 21 71 21 14 0 89 -145 89 -172 0
-24 -6 -32 -37 -44 -102 -43 -356 -58 -481 -29 -223 53 -342 206 -342 441 0
232 135 392 368 434 66 12 216 4 282 -16z m1014 15 c110 -20 197 -75 246 -154
l20 -33 -25 -77 c-45 -134 -33 -311 30 -435 18 -36 25 -65 25 -110 l0 -60
-165 0 -165 0 0 235 c0 137 -5 256 -11 287 -26 119 -150 177 -260 122 -39 -19
-86 -78 -98 -121 -6 -22 -11 -142 -11 -280 l0 -243 -165 0 -165 0 0 425 0 425
165 0 165 0 0 -116 c0 -63 4 -113 8 -110 5 3 21 37 36 75 38 98 81 134 196
167 57 16 101 17 174 3z m834 -24 c70 -32 107 -66 138 -127 38 -74 44 -69 44
36 l0 96 160 0 160 0 0 -425 0 -425 -160 0 -160 0 0 113 -1 112 -33 -58 c-46
-81 -91 -125 -161 -158 -109 -52 -258 -37 -365 38 -178 125 -232 411 -118 625
53 100 152 175 261 198 70 15 171 4 235 -25z m-4787 -247 c39 -20 65 -40 68
-52 2 -15 -1 -17 -15 -11 -17 7 -131 40 -227 66 -56 15 -35 29 42 29 57 0 78
-5 132 -32z m-402 -268 c36 -11 92 -27 124 -35 60 -16 72 -29 35 -39 -74 -19
-177 3 -260 56 -42 26 -48 34 -48 64 l0 34 41 -30 c23 -16 71 -39 108 -50z
m3447 -19 c-11 -18 -102 -43 -178 -48 -87 -6 -157 8 -184 38 -17 19 -13 19
175 19 112 0 190 -4 187 -9z m104 -38 l0 -48 -25 40 c-31 50 -31 55 0 55 23 0
25 -3 25 -47z"/>
<path d="M20347 26817 c-85 -27 -147 -111 -147 -198 0 -63 42 -143 92 -177 56
-36 148 -43 205 -14 83 43 132 132 118 217 -20 126 -151 210 -268 172z m140
-77 c90 -55 84 -204 -11 -250 -52 -25 -79 -25 -133 -1 -96 44 -105 187 -14
248 43 29 113 31 158 3z"/>
<path d="M16448 26819 c-94 -27 -156 -123 -145 -226 19 -182 242 -249 365
-109 133 151 -24 390 -220 335z m139 -79 c47 -28 66 -72 61 -138 -4 -48 -10
-60 -41 -88 -47 -44 -96 -52 -155 -28 -57 24 -86 69 -86 135 0 54 21 91 67
119 42 26 112 26 154 0z"/>
<path d="M17486 26815 c-57 -20 -114 -80 -131 -140 -43 -143 68 -276 220 -263
180 15 250 243 112 365 -58 51 -128 64 -201 38z m164 -90 c106 -101 18 -279
-123 -250 -130 27 -161 204 -46 267 51 29 130 20 169 -17z"/>
<path d="M19285 26815 c-59 -21 -120 -90 -133 -151 -31 -145 75 -264 224 -252
181 15 249 243 110 366 -57 50 -127 63 -201 37z m165 -90 c82 -78 52 -217 -52
-245 -131 -36 -230 88 -169 209 26 51 71 73 139 68 41 -3 59 -10 82 -32z"/>
<path d="M21424 26871 c-72 -18 -132 -97 -122 -162 l3 -24 160 0 160 0 -2 43
c-4 101 -98 168 -199 143z m96 -71 c11 -6 24 -19 30 -30 10 -19 7 -20 -85 -20
-93 0 -95 0 -85 21 19 35 98 52 140 29z"/>
<path d="M23410 26821 c-129 -40 -194 -170 -141 -286 19 -43 78 -100 118 -116
36 -13 119 -11 156 4 66 28 127 121 127 196 0 130 -139 238 -260 202z m127
-81 c18 -10 39 -33 48 -49 22 -43 19 -117 -5 -156 -20 -33 -80 -65 -120 -65
-40 0 -100 32 -120 65 -24 39 -27 113 -5 156 22 42 71 69 125 69 27 0 58 -8
77 -20z"/>
<path d="M18736 25568 c-21 -29 -20 -67 1 -90 13 -14 14 -21 5 -30 -8 -8 -12
-70 -12 -203 0 -173 2 -194 18 -208 24 -22 65 -21 85 1 15 16 17 46 17 208 0
127 -4 194 -11 201 -8 8 -7 17 5 34 9 13 16 34 16 46 0 57 -92 87 -124 41z"/>
<path d="M19627 25542 c-10 -10 -17 -33 -17 -50 0 -26 -4 -31 -27 -34 -35 -4
-63 -49 -47 -75 6 -10 25 -25 42 -33 l32 -15 0 -118 c0 -82 4 -126 14 -146 39
-75 186 -66 186 12 0 29 -29 57 -58 57 -21 0 -22 4 -22 100 l0 100 25 0 c37 0
78 44 69 73 -11 36 -25 47 -60 47 -32 0 -34 2 -34 33 0 59 -66 90 -103 49z"/>
<path d="M19198 25471 c-170 -34 -236 -271 -110 -394 64 -62 137 -81 224 -57
88 25 128 100 72 137 -25 16 -28 16 -65 -5 -85 -49 -169 -9 -169 82 0 56 15
90 47 107 32 17 86 15 115 -5 73 -51 137 40 68 97 -40 34 -119 50 -182 38z"/>
<path d="M20755 25470 c-16 -4 -40 -12 -52 -19 -19 -9 -27 -9 -47 5 -22 13
-29 14 -53 2 l-28 -13 -3 -194 c-3 -214 2 -231 59 -231 48 0 59 29 59 161 0
112 1 119 26 148 23 28 30 30 64 25 30 -5 42 -2 59 15 53 53 -1 119 -84 101z"/>
<path d="M21147 25470 c-176 -32 -234 -290 -92 -408 89 -73 211 -68 293 10 36
36 39 53 16 86 -20 29 -52 28 -95 -4 -46 -35 -112 -29 -148 13 l-24 28 128 3
c149 3 165 10 165 74 0 125 -117 221 -243 198z m93 -135 c11 -13 4 -15 -55
-15 -59 0 -66 2 -55 15 7 9 29 15 55 15 26 0 48 -6 55 -15z"/>
<path d="M21674 25467 c-77 -23 -114 -67 -114 -139 0 -66 43 -109 139 -138 73
-22 91 -34 72 -53 -21 -21 -79 -10 -123 22 -49 36 -61 38 -88 11 -31 -31 -25
-63 19 -103 133 -120 362 -26 311 128 -16 48 -57 79 -140 104 -56 17 -71 26
-68 39 5 28 54 26 105 -3 l45 -27 27 19 c14 11 27 30 29 42 5 31 -58 88 -106
96 -20 4 -44 8 -52 10 -8 2 -33 -2 -56 -8z"/>
<path d="M18152 25454 c-22 -15 -22 -18 -22 -283 0 -247 1 -269 18 -284 25
-23 58 -21 82 3 16 16 20 33 20 84 l0 65 35 -15 c65 -27 141 -10 198 44 105
100 95 285 -21 366 -51 36 -129 46 -183 23 -30 -12 -38 -12 -54 -1 -25 18 -45
18 -73 -2z m253 -130 c20 -22 25 -37 25 -81 0 -47 -4 -59 -29 -84 -37 -36 -79
-38 -117 -6 -22 19 -28 34 -32 80 -4 52 -2 58 26 87 40 40 92 42 127 4z"/>
<path d="M20014 25445 c-26 -26 -26 -26 -22 -168 3 -121 6 -147 24 -177 67
-115 245 -119 328 -7 19 25 21 45 24 169 2 77 1 150 -2 163 -3 12 -18 27 -33
34 -23 10 -30 9 -52 -7 -25 -19 -26 -23 -31 -156 -4 -121 -7 -139 -24 -152
-11 -8 -31 -14 -45 -14 -52 0 -56 9 -61 159 -5 148 -10 161 -57 176 -17 4 -30
-1 -49 -20z"/>
</g>
</svg>
